Coordinates
version=1
nRows=19
nColumns=33
inDegrees=yes

Units are S.I. units (second, meters, Newtons, ...)
Angles are in degrees.

endheader
time	ground_thorax_rot_x	ground_thorax_rot_y	ground_thorax_rot_z	ground_thorax_tx	ground_thorax_ty	ground_thorax_tz	clav_prot_r	clav_elev_r	scapula_abduction_r	scapula_elevation_r	scapula_upward_rot_r	scapula_winging_r	shoulder_elv_r	plane_of_elev_r	axial_rot_r	elbow_flexion_r	pro_sup_r	wrist_flex_r	wrist_dev_r	clav_prot_l	clav_elev_l	scapula_abduction_l	scapula_elevation_l	scapula_upward_rot_l	scapula_winging_l	shoulder_elv_l	plane_of_elev_l	axial_rot_l	elbow_flexion_l	pro_sup_l	wrist_flex_l	wrist_dev_l	
3.8600	26.011785	34.110679	47.881174	89.051676	775.227039	-41.603704	12.988007	36.367833	28.308307	45.000000	-45.000000	-3317.279176	-3169.927675	22.333752	180.000000	1804.020794	-176.283030	12.646727	12.803227	-15.288077	-45.000000	-33.103518	45.000000	-45.000000	-2424.755034	-94.657144	135.576139	-126.889066	349.639219	47.703867	11.800552	-15.160381	
3.8700	26.181969	34.121946	47.580872	88.408658	774.690425	-41.707190	12.894805	36.360786	28.269621	45.000000	-45.000000	-3317.317940	-3169.865117	22.341580	180.000000	1804.121437	-176.198916	12.664802	12.713136	-15.338647	-45.000000	-33.120506	45.000000	-45.000000	-2424.708895	-94.621110	135.552326	-126.976196	349.638227	47.647917	11.738138	-15.227500	
3.8800	26.376449	34.106738	47.246204	87.704968	774.161755	-41.807998	12.726872	36.314657	28.238664	45.000000	-45.000000	-3317.353784	-3169.795727	22.364008	180.000000	1804.219904	-176.104584	12.703499	12.602538	-15.414621	-45.000000	-33.120113	45.000000	-45.000000	-2424.637175	-94.583988	135.487801	-127.089102	349.625966	47.611422	11.573955	-15.275093	
3.8900	26.564373	34.107020	46.929289	86.871448	773.652554	-41.904659	12.644544	36.299499	28.209991	45.000000	-45.000000	-3317.404760	-3169.717356	22.375097	180.000000	1804.319162	-175.979266	12.722963	12.507461	-15.444465	-45.000000	-33.135433	45.000000	-45.000000	-2424.574706	-94.537670	135.454289	-127.175478	349.628651	47.614997	11.475385	-15.345204	
3.9000	26.751166	34.109241	46.617085	85.897386	773.161991	-41.995623	12.597196	36.298848	28.178679	45.000000	-45.000000	-3317.466308	-3169.629672	22.384882	180.000000	1804.415302	-175.823294	12.732090	12.419930	-15.454380	-45.000000	-33.162645	45.000000	-45.000000	-2424.513081	-94.484512	135.439084	-127.253165	349.644388	47.664123	11.405910	-15.427336	
3.9100	26.942773	34.107791	46.302415	84.762934	772.691148	-42.079872	12.563247	36.297271	28.153485	45.000000	-45.000000	-3317.538848	-3169.537537	22.389813	180.000000	1804.510851	-175.635600	12.739287	12.336098	-15.446658	-45.000000	-33.192634	45.000000	-45.000000	-2424.440637	-94.427157	135.424556	-127.332471	349.663945	47.763016	11.323131	-15.514561	
3.9200	27.132124	34.103262	45.985101	83.464260	772.238301	-42.157064	12.549338	36.310232	28.112298	45.000000	-45.000000	-3317.618294	-3169.435726	22.403445	180.000000	1804.600224	-175.417510	12.735749	12.261817	-15.430653	-45.000000	-33.234033	45.000000	-45.000000	-2424.370071	-94.361281	135.426172	-127.417328	349.698084	47.911298	11.274223	-15.610803	
3.9300	27.330482	34.084738	45.655356	82.004623	771.801052	-42.227792	12.515342	36.305614	28.078997	45.000000	-45.000000	-3317.706279	-3169.337089	22.414679	180.000000	1804.683725	-175.176777	12.742509	12.186908	-15.409966	-45.000000	-33.266123	45.000000	-45.000000	-2424.278431	-94.294984	135.413009	-127.525095	349.729323	48.099195	11.175111	-15.699781	
3.9400	27.514459	34.071287	45.335788	80.387643	771.377941	-42.293259	12.498746	36.313275	28.031803	45.000000	-45.000000	-3317.801300	-3169.235823	22.419310	180.000000	1804.759491	-174.914529	12.741297	12.124937	-15.383262	-45.000000	-33.315420	45.000000	-45.000000	-2424.190271	-94.226151	135.425822	-127.639726	349.779099	48.318831	11.120890	-15.792628	
3.9500	27.696906	34.052549	45.013707	78.616689	770.968461	-42.354921	12.468219	36.308305	27.991573	45.000000	-45.000000	-3317.904237	-3169.141020	22.413107	180.000000	1804.832436	-174.636160	12.749117	12.066577	-15.347622	-45.000000	-33.363195	45.000000	-45.000000	-2424.084135	-94.158926	135.432289	-127.771570	349.826248	48.555131	11.034551	-15.878297	
3.9600	27.867526	34.035603	44.693300	76.696286	770.572716	-42.413615	12.449572	36.313550	27.931270	45.000000	-45.000000	-3318.008744	-3169.040092	22.409165	180.000000	1804.900875	-174.343018	12.750002	12.020536	-15.307698	-45.000000	-33.426277	45.000000	-45.000000	-2423.981368	-94.088164	135.457500	-127.911902	349.888243	48.797099	10.995408	-15.961627	
3.9700	28.039027	34.009954	44.366832	74.632103	770.191246	-42.469118	12.419800	36.303530	27.874096	45.000000	-45.000000	-3318.118111	-3168.944873	22.402105	180.000000	1804.968277	-174.041521	12.761112	11.978217	-15.256491	-45.000000	-33.483711	45.000000	-45.000000	-2423.858722	-94.018846	135.470467	-128.073954	349.941262	49.029131	10.924653	-16.033139	
3.9800	28.197693	33.985978	44.044475	72.433156	769.824507	-42.519747	12.400300	36.299408	27.798212	45.000000	-45.000000	-3318.227161	-3168.845576	22.396568	180.000000	1805.035074	-173.733318	12.766206	11.948195	-15.200527	-45.000000	-33.555358	45.000000	-45.000000	-2423.737895	-93.947051	135.497513	-128.248032	350.002053	49.242814	10.899311	-16.097486	
3.9900	28.356008	33.951918	43.715287	70.110584	769.472929	-42.562786	12.373224	36.285476	27.717237	45.000000	-45.000000	-3318.337748	-3168.749320	22.397035	180.000000	1805.102895	-173.424189	12.776978	11.922944	-15.135841	-45.000000	-33.622175	45.000000	-45.000000	-2423.602088	-93.871917	135.511882	-128.445503	350.048956	49.427025	10.857238	-16.150783	
4.0000	28.510887	33.909335	43.380001	67.678320	769.136621	-42.595381	12.349607	36.275037	27.619767	45.000000	-45.000000	-3318.445290	-3168.649219	22.408337	180.000000	1805.171054	-173.117818	12.783279	11.906665	-15.069167	-45.000000	-33.690960	45.000000	-45.000000	-2423.465425	-93.791093	135.527342	-128.659553	350.095500	49.577466	10.846791	-16.192832	
4.0100	28.664501	33.854084	43.043096	65.149802	768.815964	-42.615943	12.320698	36.254204	27.522089	45.000000	-45.000000	-3318.553131	-3168.553984	22.421934	180.000000	1805.240463	-172.820372	12.793926	11.893890	-14.996700	-45.000000	-33.750730	45.000000	-45.000000	-2423.315218	-93.708309	135.533803	-128.892213	350.128471	49.690008	10.819620	-16.222525	
4.0200	28.809795	33.792400	42.711198	62.536925	768.511858	-42.625385	12.293409	36.235939	27.417541	45.000000	-45.000000	-3318.658198	-3168.459792	22.432207	180.000000	1805.310521	-172.534203	12.800037	11.887836	-14.922464	-45.000000	-33.814367	45.000000	-45.000000	-2423.166086	-93.625405	135.549198	-129.128688	350.163234	49.766917	10.816201	-16.242614	
4.0300	28.948920	33.722444	42.385636	59.847058	768.226717	-42.627516	12.264746	36.213140	27.309368	45.000000	-45.000000	-3318.761993	-3168.369165	22.439476	180.000000	1805.378973	-172.263216	12.805601	11.885490	-14.845183	-45.000000	-33.877842	45.000000	-45.000000	-2423.011860	-93.543743	135.567800	-129.366976	350.191706	49.810684	10.808793	-16.255304	
4.0400	29.085116	33.643659	42.062806	57.084085	767.964171	-42.628244	12.234425	36.191748	27.196623	45.000000	-45.000000	-3318.863333	-3168.282193	22.443708	180.000000	1805.445981	-172.010794	12.806994	11.887899	-14.765696	-45.000000	-33.942402	45.000000	-45.000000	-2422.858063	-93.462940	135.590956	-129.601853	350.219100	49.827171	10.813558	-16.261438	
